<svg version="1.1" id="Capa_1" xmlns="http://www.w3.org/2000/svg" xmlns:xlink="http://www.w3.org/1999/xlink" viewBox="0 0 297 297" xml:space="preserve">
  <g>
    <path d="M293.426,51.726C292.645,50.62,291.457,50,290.167,50H6.832C5.542,50,4.354,50.62,3.573,51.726
      c-0.781,1.106-0.969,2.521-0.504,3.792l140.167,241.451c0.521,1.794,2.166,3.031,3.933,3.031s3.412-1.237,3.933-3.031
      L293.93,55.518C294.395,54.248,294.207,52.832,293.426,51.726z M147.944,284.333L14.491,60h268.017L147.944,284.333z"/>
    <path d="M181.167,181.229c-8.732,0-15.833,7.101-15.833,15.833s7.101,15.833,15.833,15.833s15.833-7.101,15.833-15.833
      S189.899,181.229,181.167,181.229z"/>
    <path d="M74.5,181.229c-8.732,0-15.833,7.101-15.833,15.833s7.101,15.833,15.833,15.833s15.833-7.101,15.833-15.833
      S83.232,181.229,74.5,181.229z"/>
    <path d="M74.5,88.104c-8.732,0-15.833,7.101-15.833,15.833s7.101,15.833,15.833,15.833s15.833-7.101,15.833-15.833
      S83.232,88.104,74.5,88.104z"/>
    <path d="M142.833,134.667c8.732,0,15.833-7.101,15.833-15.833s-7.101-15.833-15.833-15.833s-15.833,7.101-15.833,15.833
      S134.101,134.667,142.833,134.667z"/>
    <path d="M181.167,103.937c8.732,0,15.833-7.101,15.833-15.833s-7.101-15.833-15.833-15.833s-15.833,7.101-15.833,15.833
      S172.435,103.937,181.167,103.937z"/>
  </g>
</svg>
